<svg width="28" height="20" viewBox="0 0 28 20" fill="none" xmlns="http://www.w3.org/2000/svg">
<path d="M22.7907 9.99999C22.7907 10.3031 22.6584 10.5938 22.4229 10.8081C22.1874 11.0224 21.868 11.1428 21.5349 11.1428C21.2018 11.1428 20.8824 11.0224 20.6469 10.8081C20.4114 10.5938 20.2791 10.3031 20.2791 9.99999C20.2791 9.69688 20.4114 9.40619 20.6469 9.19187C20.8824 8.97754 21.2018 8.85713 21.5349 8.85713C21.868 8.85713 22.1874 8.97754 22.4229 9.19187C22.6584 9.40619 22.7907 9.69688 22.7907 9.99999Z" fill="black" fill-opacity="0.7"/>
<path fill-rule="evenodd" clip-rule="evenodd" d="M11.418 0H15.3261C17.6343 0 19.4628 1.36239e-07 20.8932 0.174857C22.365 0.355429 23.5567 0.734857 24.4973 1.58971C25.6577 2.64686 26.0282 4.06171 26.1626 5.89829C26.8872 6.18743 27.4347 6.80114 27.4937 7.57829C27.5 7.648 27.5 7.72229 27.5 7.79086V12.2091C27.5 12.2777 27.5 12.352 27.495 12.4206C27.4347 13.1977 26.8872 13.8126 26.1626 14.1029C26.0282 15.9383 25.6577 17.3531 24.4973 18.4103C23.5567 19.2651 22.365 19.6446 20.8932 19.8251C19.4615 20 17.6343 20 15.3261 20H11.418C9.10986 20 7.2814 20 5.85102 19.8251C4.37921 19.6446 3.18744 19.2651 2.24684 18.4103C1.30749 17.5543 0.890558 16.4697 0.69214 15.1303C0.5 13.8274 0.5 12.1646 0.5 10.064V9.936C0.5 7.83543 0.5 6.17143 0.69214 4.86971C0.890558 3.53029 1.30749 2.44571 2.24684 1.58971C3.18744 0.734857 4.37921 0.355429 5.85102 0.174857C7.28265 1.36239e-07 9.10986 0 11.418 0ZM24.2575 14.2857H21.8237C19.13 14.2857 16.8243 12.4251 16.8243 10C16.8243 7.57486 19.13 5.71429 21.8225 5.71429H24.2562C24.1131 4.18171 23.7903 3.37143 23.1637 2.80229C22.6325 2.31886 21.9041 2.02857 20.6407 1.87429C19.351 1.71657 17.6494 1.71429 15.2546 1.71429H11.4871C9.09228 1.71429 7.39191 1.71657 6.09967 1.87429C4.83758 2.02857 4.10921 2.31886 3.578 2.80229C3.04679 3.28571 2.72781 3.94857 2.55828 5.09829C2.38498 6.27314 2.38247 7.82057 2.38247 10C2.38247 12.1794 2.38498 13.7269 2.55828 14.9029C2.72781 16.0514 3.04679 16.7143 3.578 17.1977C4.10921 17.6811 4.83758 17.9714 6.10093 18.1257C7.39191 18.2834 9.09228 18.2857 11.4871 18.2857H15.2546C17.6494 18.2857 19.351 18.2834 20.642 18.1257C21.9041 17.9714 22.6325 17.6811 23.1637 17.1977C23.7903 16.6286 24.1143 15.8194 24.2575 14.2857ZM5.52326 5.42857C5.52326 5.20124 5.62249 4.98323 5.79912 4.82248C5.97575 4.66173 6.21532 4.57143 6.46512 4.57143H11.4884C11.7382 4.57143 11.9777 4.66173 12.1544 4.82248C12.331 4.98323 12.4302 5.20124 12.4302 5.42857C12.4302 5.6559 12.331 5.87392 12.1544 6.03466C11.9777 6.19541 11.7382 6.28571 11.4884 6.28571H6.46512C6.21532 6.28571 5.97575 6.19541 5.79912 6.03466C5.62249 5.87392 5.52326 5.6559 5.52326 5.42857ZM25.2069 7.42857H21.8237C20.0354 7.42857 18.708 8.63886 18.708 10C18.708 11.3611 20.0354 12.5714 21.8225 12.5714H25.2358C25.4945 12.5566 25.6062 12.3977 25.615 12.3017V7.69829C25.6062 7.60229 25.4945 7.44343 25.2358 7.42972H25.2056L25.2069 7.42857Z" fill="black" fill-opacity="0.7"/>
</svg>
